<svg width="26" height="26" viewBox="0 0 26 26" fill="none" xmlns="http://www.w3.org/2000/svg">
<g id="Iconly/Light-Outline/Calendar">
<g id="Calendar">
<path id="Fill 1" fill-rule="evenodd" clip-rule="evenodd" d="M22.3887 10.7297H3.07935C2.63085 10.7297 2.26685 10.3657 2.26685 9.91718C2.26685 9.46868 2.63085 9.10468 3.07935 9.10468H22.3887C22.8372 9.10468 23.2012 9.46868 23.2012 9.91718C23.2012 10.3657 22.8372 10.7297 22.3887 10.7297Z" fill="#0E77BA"/>
<path id="Fill 3" fill-rule="evenodd" clip-rule="evenodd" d="M17.5512 14.9604C17.1027 14.9604 16.7344 14.5964 16.7344 14.1479C16.7344 13.6994 17.093 13.3354 17.5415 13.3354H17.5512C17.9997 13.3354 18.3637 13.6994 18.3637 14.1479C18.3637 14.5964 17.9997 14.9604 17.5512 14.9604Z" fill="#0E77BA"/>
<path id="Fill 5" fill-rule="evenodd" clip-rule="evenodd" d="M12.744 14.9604C12.2955 14.9604 11.9271 14.5964 11.9271 14.1479C11.9271 13.6994 12.2857 13.3354 12.7342 13.3354H12.744C13.1925 13.3354 13.5565 13.6994 13.5565 14.1479C13.5565 14.5964 13.1925 14.9604 12.744 14.9604Z" fill="#0E77BA"/>
<path id="Fill 7" fill-rule="evenodd" clip-rule="evenodd" d="M7.92656 14.9604C7.47806 14.9604 7.10864 14.5964 7.10864 14.1479C7.10864 13.6994 7.46831 13.3354 7.91681 13.3354H7.92656C8.37506 13.3354 8.73906 13.6994 8.73906 14.1479C8.73906 14.5964 8.37506 14.9604 7.92656 14.9604Z" fill="#0E77BA"/>
<path id="Fill 9" fill-rule="evenodd" clip-rule="evenodd" d="M17.5512 19.171C17.1027 19.171 16.7344 18.807 16.7344 18.3585C16.7344 17.91 17.093 17.546 17.5415 17.546H17.5512C17.9997 17.546 18.3637 17.91 18.3637 18.3585C18.3637 18.807 17.9997 19.171 17.5512 19.171Z" fill="#0E77BA"/>
<path id="Fill 11" fill-rule="evenodd" clip-rule="evenodd" d="M12.744 19.171C12.2955 19.171 11.9271 18.807 11.9271 18.3585C11.9271 17.91 12.2857 17.546 12.7342 17.546H12.744C13.1925 17.546 13.5565 17.91 13.5565 18.3585C13.5565 18.807 13.1925 19.171 12.744 19.171Z" fill="#0E77BA"/>
<path id="Fill 13" fill-rule="evenodd" clip-rule="evenodd" d="M7.92656 19.171C7.47806 19.171 7.10864 18.807 7.10864 18.3585C7.10864 17.91 7.46831 17.546 7.91681 17.546H7.92656C8.37506 17.546 8.73906 17.91 8.73906 18.3585C8.73906 18.807 8.37506 19.171 7.92656 19.171Z" fill="#0E77BA"/>
<path id="Fill 15" fill-rule="evenodd" clip-rule="evenodd" d="M17.1096 6.27359C16.6611 6.27359 16.2971 5.90959 16.2971 5.46109V1.89584C16.2971 1.44734 16.6611 1.08334 17.1096 1.08334C17.5581 1.08334 17.9221 1.44734 17.9221 1.89584V5.46109C17.9221 5.90959 17.5581 6.27359 17.1096 6.27359Z" fill="#0E77BA"/>
<path id="Fill 17" fill-rule="evenodd" clip-rule="evenodd" d="M8.35815 6.27359C7.90965 6.27359 7.54565 5.90959 7.54565 5.46109V1.89584C7.54565 1.44734 7.90965 1.08334 8.35815 1.08334C8.80665 1.08334 9.17065 1.44734 9.17065 1.89584V5.46109C9.17065 5.90959 8.80665 6.27359 8.35815 6.27359Z" fill="#0E77BA"/>
<g id="Group 21">
<mask id="mask0_1_693" style="mask-type:alpha" maskUnits="userSpaceOnUse" x="2" y="2" width="22" height="23">
<path id="Clip 20" fill-rule="evenodd" clip-rule="evenodd" d="M2.16663 2.79404H23.2916V24.375H2.16663V2.79404Z" fill="white"/>
</mask>
<g mask="url(#mask0_1_693)">
<path id="Fill 19" fill-rule="evenodd" clip-rule="evenodd" d="M8.14771 4.41904C5.33863 4.41904 3.79163 5.91729 3.79163 8.63754V18.4406C3.79163 21.2205 5.33863 22.7501 8.14771 22.7501H17.3105C20.1196 22.7501 21.6666 21.2486 21.6666 18.523V8.63754C21.671 7.29962 21.3113 6.25962 20.5974 5.54462C19.8629 4.80795 18.7308 4.41904 17.3203 4.41904H8.14771ZM17.3105 24.3751H8.14771C4.45896 24.3751 2.16663 22.1012 2.16663 18.4406V8.63754C2.16663 5.0322 4.45896 2.79404 8.14771 2.79404H17.3203C19.1717 2.79404 20.7025 3.3487 21.7479 4.39629C22.763 5.4157 23.297 6.88145 23.2916 8.6397V18.523C23.2916 22.1326 20.9993 24.3751 17.3105 24.3751Z" fill="#0E77BA"/>
</g>
</g>
</g>
</g>
</svg>
