<svg width="10" height="10" viewBox="0 0 10 10" fill="none" xmlns="http://www.w3.org/2000/svg">
<path d="M9.7364 0.263604C10.0879 0.615076 10.0879 1.18492 9.7364 1.5364L6.27299 5L9.7364 8.46362C10.0586 8.7858 10.0854 9.29148 9.81695 9.64424L9.7364 9.73641C9.38493 10.0879 8.81508 10.0879 8.46361 9.73641L4.99999 6.273L1.53639 9.73641C1.18492 10.0879 0.615068 10.0879 0.263596 9.73641C-0.0878756 9.38494 -0.0878756 8.81509 0.263596 8.46362L3.72699 5L0.263596 1.5364C-0.0585862 1.21421 -0.0854348 0.708534 0.183051 0.355769L0.263596 0.263604C0.615068 -0.087868 1.18492 -0.087868 1.53639 0.263604L4.99999 3.727L8.46361 0.263604C8.81508 -0.087868 9.38493 -0.087868 9.7364 0.263604Z" fill="#A6B2B9"/>
</svg>
