<svg width="20" height="20" viewBox="0 0 20 20" fill="none" xmlns="http://www.w3.org/2000/svg">
<path fill-rule="evenodd" clip-rule="evenodd" d="M2.99624 3.63892C2.99807 3.63892 2.95224 3.68659 2.89449 3.74342C2.67265 3.95884 2.2134 4.40709 2.20882 5.34484C2.20149 6.65659 3.06407 9.09217 7.21749 13.2447C11.3517 17.377 13.7836 18.2497 15.0981 18.2497H15.1173C16.0551 18.2451 16.5024 17.7849 16.7187 17.564C16.7847 17.4962 16.8379 17.4467 16.8755 17.4155C17.7885 16.497 18.256 15.8132 18.2514 15.375C18.245 14.9277 17.6886 14.3988 16.9195 13.6673C16.6747 13.4344 16.4089 13.1814 16.1284 12.9009C15.4015 12.1758 15.0412 12.2996 14.2492 12.5783C13.1538 12.9623 11.6505 13.4848 9.31482 11.1483C6.97549 8.81076 7.4989 7.30926 7.88207 6.21384C8.1589 5.42184 8.2854 5.06067 7.55757 4.33284C7.27249 4.04867 7.01674 3.77917 6.78115 3.53167C6.05424 2.76717 5.5299 2.21442 5.08532 2.20801H5.07799C4.6389 2.20801 3.9569 2.67734 2.99165 3.64259C2.9944 3.63984 2.99532 3.63892 2.99624 3.63892ZM15.099 19.6247C12.8147 19.6247 9.8364 17.806 6.24582 14.2173C2.64148 10.6139 0.820068 7.62644 0.833818 5.33753C0.842068 3.82503 1.63498 3.05044 1.9329 2.75986C1.94848 2.74061 2.00165 2.68836 2.01998 2.67003C3.33448 1.35461 4.2209 0.822943 5.10273 0.833026C6.12665 0.846776 6.8554 1.61311 7.77757 2.58386C8.00582 2.82403 8.25332 3.08528 8.52923 3.36028C9.86757 4.69861 9.48623 5.79036 9.18007 6.66669C8.8464 7.62278 8.55765 8.44778 10.2865 10.1766C12.0172 11.9054 12.8422 11.6167 13.7946 11.2803C14.6718 10.9741 15.7608 10.5909 17.101 11.9293C17.3723 12.2006 17.6299 12.4454 17.8673 12.6718C18.8427 13.5985 19.6127 14.3309 19.6255 15.3576C19.6365 16.233 19.1048 17.1249 17.7922 18.4385L17.211 18.0444L17.7023 18.5247C17.4117 18.8226 16.6381 19.6164 15.1247 19.6247H15.099Z" fill="white"/>
</svg>
